<?xml version="1.0" encoding="UTF-8"?>
<svg width="339px" height="277px" viewBox="0 0 339 277" version="1.1" xmlns="http://www.w3.org/2000/svg" xmlns:xlink="http://www.w3.org/1999/xlink">
    <!-- Generator: Sketch 42 (36781) - http://www.bohemiancoding.com/sketch -->
    <title>Group</title>
    <desc>Created with Sketch.</desc>
    <defs></defs>
    <g id="Page-1" stroke="none" stroke-width="1" fill="none" fill-rule="evenodd">
        <g id="Group" fill-rule="nonzero" fill="#39AA94">
            <path d="M169.5,84.8675238 C132.11395,84.8675238 101.7,115.257378 101.7,152.61381 C101.7,189.970241 132.11395,220.360095 169.5,220.360095 C206.88605,220.360095 237.3,189.970241 237.3,152.61381 C237.3,115.257378 206.88605,84.8675238 169.5,84.8675238 Z" id="Shape"></path>
            <path d="M311.88565,56.6399048 L263.72505,56.6399048 L241.12505,0.184666667 L97.87495,0.184666667 L75.27495,56.6399048 L67.8,56.6399048 L67.8,28.4122857 L33.9,28.4122857 L33.9,56.6399048 L27.11435,56.6399048 C12.1588,56.6399048 0,68.789072 0,83.7327735 L0,249.530517 C0,264.575838 12.2492,276.815333 27.30645,276.815333 L311.69355,276.815333 C326.7508,276.815333 339,264.575838 339,249.530517 L339,83.7327735 C339,68.789072 326.8412,56.6399048 311.88565,56.6399048 Z M56.5,56.6399048 L45.2,56.6399048 L45.2,39.7033333 L56.5,39.7033333 L56.5,56.6399048 Z M169.5,254.233238 C113.42375,254.233238 67.8,208.645633 67.8,152.61381 C67.8,96.5819857 113.42375,50.994381 169.5,50.994381 C225.57625,50.994381 271.2,96.5819857 271.2,152.61381 C271.2,208.645633 225.57625,254.233238 169.5,254.233238 Z M293.8,124.38619 C281.3361,124.38619 271.2,114.258121 271.2,101.804095 C271.2,89.3500697 281.3361,79.222 293.8,79.222 C306.2639,79.222 316.4,89.3500697 316.4,101.804095 C316.4,114.258121 306.2639,124.38619 293.8,124.38619 Z" id="Shape"></path>
        </g>
    </g>
</svg>