<?xml version="1.0" encoding="utf-8"?>
<!-- Generator: Adobe Illustrator 21.0.2, SVG Export Plug-In . SVG Version: 6.00 Build 0)  -->
<svg version="1.1" id="Layer_1" xmlns="http://www.w3.org/2000/svg" xmlns:xlink="http://www.w3.org/1999/xlink" x="0px" y="0px"
	 viewBox="0 0 829 829" style="enable-background:new 0 0 829 829;" xml:space="preserve">
<style type="text/css">
	.st0{fill:#6AA793;}
	.st1{fill:#959595;}
</style>
<g>
	<path class="st0" d="M414.5,829c-55.9,0-110.2-11-161.3-32.6c-49.4-20.9-93.7-50.8-131.7-88.8c-38.1-38.1-67.9-82.4-88.8-131.7
		C11,524.7,0,470.4,0,414.5s11-110.2,32.6-161.3c20.9-49.4,50.8-93.7,88.8-131.7s82.4-67.9,131.7-88.8C304.3,11,358.6,0,414.5,0
		s110.2,11,161.3,32.6c49.4,20.9,93.7,50.8,131.7,88.8c38.1,38.1,67.9,82.4,88.8,131.7C818,304.3,829,358.6,829,414.5
		s-11,110.2-32.6,161.3c-20.9,49.4-50.8,93.7-88.8,131.7c-38.1,38.1-82.4,67.9-131.7,88.8C524.7,818,470.4,829,414.5,829z M414.5,42
		c-99.5,0-193,38.7-263.4,109.1S42,315,42,414.5c0,99.5,38.7,193,109.1,263.4C221.5,748.3,315,787,414.5,787s193-38.7,263.4-109.1
		C748.3,607.5,787,514,787,414.5c0-99.5-38.7-193-109.1-263.4C607.5,80.7,514,42,414.5,42z"/>
</g>
<g>
	
		<rect x="165.8" y="428.7" transform="matrix(0.7071 -0.7071 0.7071 0.7071 -255.5392 243.5738)" class="st1" width="1" height="3.1"/>
</g>
<g>
	<path class="st0" d="M314.4,619.5L150.2,455.2c-8.2-8.2-8.2-21.5,0-29.7c8.2-8.2,21.5-8.2,29.7,0l134.6,134.6l334.9-334.9
		c8.2-8.2,21.5-8.2,29.7,0s8.2,21.5,0,29.7L314.4,619.5z"/>
</g>
</svg>
