<?xml version="1.0" encoding="UTF-8"?>
<svg width="513px" height="309px" viewBox="0 0 513 309" version="1.1" xmlns="http://www.w3.org/2000/svg" xmlns:xlink="http://www.w3.org/1999/xlink">
    <!-- Generator: Sketch 42 (36781) - http://www.bohemiancoding.com/sketch -->
    <title>Shape</title>
    <desc>Created with Sketch.</desc>
    <defs></defs>
    <g id="Page-1" stroke="none" stroke-width="1" fill="none" fill-rule="evenodd">
        <path d="M475.6,136.5 L470.6,136.5 L470.6,53.1 C470.6,23.8 446.8,0 417.6,0 L94.6,0 C65.3,0 41.6,23.8 41.6,53.1 L41.6,136.5 L36.6,136.5 C16.3,136.5 0,152.8 0,172.9 L0,226.8 C0,246.9 16.3,263.2 36.4,263.2 L81.4,263.2 L81.4,297.4 C81.4,303.7 86.5,308.8 92.8,308.8 C99.1,308.8 104.2,303.7 104.2,297.4 L104.2,263.2 L408,263.2 L408,297.4 C408,303.7 413.1,308.8 419.4,308.8 C425.7,308.8 430.8,303.7 430.8,297.4 L430.8,263.2 L475.8,263.2 C495.9,263.2 512.2,246.9 512.2,226.8 L512.2,172.9 C512,152.8 495.7,136.5 475.6,136.5 L475.6,136.5 Z M64.2,53.1 C64.2,36.4 77.8,22.8 94.5,22.8 L417.5,22.8 C434.2,22.8 447.8,36.4 447.8,53.1 L447.8,136.5 L433.2,136.5 L433.2,113.7 C433.2,99.1 421.3,87.3 406.8,87.3 L290.2,87.3 C275.6,87.3 263.8,99.2 263.8,113.7 L263.8,136.5 L248.3,136.5 L248.3,113.7 C248.3,99.1 236.4,87.3 221.9,87.3 L105.2,87.3 C90.6,87.3 78.8,99.2 78.8,113.7 L78.8,136.5 L64.2,136.5 L64.2,53.1 L64.2,53.1 Z M286.5,136.5 L286.5,113.7 C286.5,111.7 288.2,110 290.2,110 L406.8,110 C408.8,110 410.5,111.7 410.5,113.7 L410.5,136.5 L286.5,136.5 Z M101.5,136.5 L101.5,113.7 C101.5,111.7 103.2,110 105.2,110 L221.8,110 C223.8,110 225.5,111.7 225.5,113.7 L225.5,136.5 L101.5,136.5 L101.5,136.5 Z M489.2,226.8 C489.2,234.3 483.1,240.4 475.6,240.4 L36.4,240.4 C28.9,240.4 22.8,234.3 22.8,226.8 L22.8,172.9 C22.8,165.4 28.9,159.3 36.4,159.3 L475.6,159.3 C483.1,159.3 489.2,165.4 489.2,172.9 L489.2,226.8 Z" id="Shape" fill="#39AA94" fill-rule="nonzero"></path>
    </g>
</svg>