<?xml version="1.0" encoding="utf-8"?>
<!-- Generator: Adobe Illustrator 21.0.2, SVG Export Plug-In . SVG Version: 6.00 Build 0)  -->
<svg version="1.1" id="Layer_1" xmlns="http://www.w3.org/2000/svg" xmlns:xlink="http://www.w3.org/1999/xlink" x="0px" y="0px"
	 viewBox="0 0 338 308.7" style="enable-background:new 0 0 338 308.7;" xml:space="preserve">
<style type="text/css">
	.st0{fill:#DCE0E0;}
	.st1{fill:#FFFFFF;}
</style>
<g>
	<path class="st0" d="M301.6,136.5h-5V53.1c0-29.3-23.8-53.1-53-53.1h-149c-29.3,0-53,23.8-53,53.1v83.4h-5
		C16.3,136.5,0,152.8,0,172.9v53.9c0,20.1,16.3,36.4,36.4,36.4h45v34.2c0,6.3,5.1,11.4,11.4,11.4c6.3,0,11.4-5.1,11.4-11.4v-34.2
		h129.8v34.2c0,6.3,5.1,11.4,11.4,11.4c6.3,0,11.4-5.1,11.4-11.4v-34.2h45c20.1,0,36.4-16.3,36.4-36.4v-53.9
		C338,152.8,321.7,136.5,301.6,136.5L301.6,136.5z M64.2,53.1c0-16.7,13.6-30.3,30.3-30.3h149c16.7,0,30.3,13.6,30.3,30.3v83.4
		h-20.6v-22.8c0-14.6-11.9-26.4-26.4-26.4H110.2c-14.6,0-26.4,11.9-26.4,26.4v22.8H64.2L64.2,53.1L64.2,53.1z M106.5,136.5v-22.8
		c0-2,1.7-3.7,3.7-3.7h116.6c2,0,3.7,1.7,3.7,3.7v22.8H106.5L106.5,136.5z M315.2,226.8c0,7.5-6.1,13.6-13.6,13.6H36.4
		c-7.5,0-13.6-6.1-13.6-13.6v-53.9c0-7.5,6.1-13.6,13.6-13.6h265.2c7.5,0,13.6,6.1,13.6,13.6V226.8z"/>
</g>
</svg>
