<?xml version="1.0" encoding="utf-8"?>
<!-- Generator: Adobe Illustrator 21.0.0, SVG Export Plug-In . SVG Version: 6.00 Build 0)  -->
<svg version="1.1" id="Layer_1" xmlns="http://www.w3.org/2000/svg" xmlns:xlink="http://www.w3.org/1999/xlink" x="0px" y="0px"
	 width="667.2px" height="667.2px" viewBox="0 0 667.2 667.2" enable-background="new 0 0 667.2 667.2" xml:space="preserve">
<g>
	<path fill="#F26F62" d="M502,390.8c-23.8,70.2-90.2,120.7-168.4,120.7c-92.2,0-168-70.1-177-160c-84-17.7-125.5,19-145.2,68.6
		c38.1,142.3,167.9,247,322.2,247c158.2,0,290.7-110.2,324.9-258.1C613.6,439.6,558.6,449.1,502,390.8z"/>
	<path fill="#00B698" d="M505,380.9c-0.9,3.3-1.9,6.7-3,9.9c56.5,58.3,111.6,48.8,156.4,18.3c5.6-24.3,8.7-49.5,8.7-75.5
		c0-37.5-6.3-73.5-17.7-107.1C611.2,317.9,541.2,362.9,505,380.9z"/>
	<path fill="#00B698" d="M333.6,0C155.9,0,10.8,138.9,0.6,314c70.4-75.4,154.9-92.3,197.6-95.7c32.6-38.3,81.2-62.6,135.4-62.6
		c72.5,0,134.7,43.3,162.5,105.5c47.4-17.3,95.8-56,130.2-87.7C569.5,70.1,459.7,0,333.6,0z"/>
	<path fill="#00B698" d="M11.4,420.1c19.7-49.6,61.1-86.3,145.2-68.6c-0.6-5.9-0.9-11.9-0.9-17.9c0-0.5,0-1,0-1.5
		C103.9,332,44,350.7,1.7,367C3.5,385.2,6.8,402.9,11.4,420.1z"/>
	<path fill="#F26F62" d="M0.6,314C0.2,320.5,0,327,0,333.6C0,344.9,0.6,356,1.7,367c42.3-16.3,102.2-35,154-34.9
		c0.4-43.4,16.3-83.2,42.5-113.9C155.5,221.7,71,238.6,0.6,314z"/>
	<path fill="#F26F62" d="M649.5,226.5c-6.3-18.5-14-36.2-23.3-53.1c-34.4,31.8-82.8,70.4-130.2,87.7c9.9,22.1,15.4,46.6,15.4,72.4
		c0,16.4-2.3,32.2-6.4,47.3C541.2,362.9,611.2,317.9,649.5,226.5z"/>
</g>
</svg>
